<svg preserveAspectRatio="none" width="100%" height="100%" overflow="visible" style="display: block;" viewBox="0 0 177.062 43.9147" fill="none" xmlns="http://www.w3.org/2000/svg">
<g id="Amazatic-Logo">
<g id="Group 2">
<path id="Vector" d="M53.4569 24.9551H59.5207L56.3931 16.1466L53.4569 24.9551ZM62.2973 32.8381L60.925 28.9445H52.0527L50.7442 32.8381H46.1484L53.7122 11.2637H58.9782L66.6058 32.8381H62.2973Z" fill="#FBFBFB"/>
<path id="Vector_2" d="M85.0529 16.9766C86.8082 16.9766 88.2444 17.551 89.2976 18.7C90.3508 19.8489 90.8933 21.3808 90.8933 23.3276V32.8063H86.904V23.6148C86.904 22.6893 86.6806 21.9553 86.2338 21.4446C85.787 20.934 85.1487 20.6787 84.3189 20.6787C83.4253 20.6787 82.7231 20.9659 82.2125 21.5723C81.7019 22.1787 81.4465 23.0404 81.4465 24.1574V32.8063H77.4572V23.6148C77.4572 22.6893 77.2338 21.9553 76.787 21.4446C76.3402 20.934 75.7019 20.6787 74.8721 20.6787C73.9785 20.6787 73.2764 20.9659 72.7657 21.5723C72.2551 22.1787 71.9679 23.0404 71.9679 24.1574V32.8063H67.9785V17.4234H71.9679V19.051C72.8934 17.6787 74.3296 16.9766 76.2444 16.9766C78.1274 16.9766 79.5317 17.7106 80.4253 19.2106C81.5104 17.7106 83.0423 16.9766 85.0529 16.9766Z" fill="#FBFBFB"/>
<path id="Vector_3" d="M98.1692 28.2438C98.9671 29.0416 99.9884 29.4565 101.233 29.4565C102.478 29.4565 103.499 29.0416 104.297 28.2438C105.095 27.4459 105.51 26.3927 105.51 25.1161C105.51 23.8395 105.095 22.7863 104.297 21.9885C103.499 21.1906 102.478 20.7757 101.233 20.7757C99.9884 20.7757 98.9671 21.1906 98.1692 21.9885C97.3714 22.7863 96.9565 23.8395 96.9565 25.1161C96.9565 26.3927 97.3714 27.4459 98.1692 28.2438ZM105.51 17.4247H109.499V32.8395H105.51V31.0204C104.329 32.5203 102.637 33.2863 100.499 33.2863C98.4565 33.2863 96.6692 32.4884 95.2011 30.9246C93.7331 29.3608 92.999 27.414 92.999 25.148C92.999 22.8821 93.7331 20.9353 95.2011 19.3715C96.6692 17.8076 98.4245 17.0098 100.499 17.0098C102.669 17.0098 104.329 17.7757 105.51 19.2757V17.4247Z" fill="#FBFBFB"/>
<path id="Vector_4" d="M117.414 29.1046H124.244V32.8387H112.084V30.1897L118.595 21.1579H112.403V17.4238H123.924V20.0408L117.414 29.1046Z" fill="#FBFBFB"/>
<path id="Vector_5" d="M130.116 28.2438C130.914 29.0416 131.936 29.4565 133.18 29.4565C134.425 29.4565 135.446 29.0416 136.244 28.2438C137.042 27.4459 137.457 26.3927 137.457 25.1161C137.457 23.8395 137.042 22.7863 136.244 21.9885C135.446 21.1906 134.425 20.7757 133.18 20.7757C131.936 20.7757 130.914 21.1906 130.116 21.9885C129.319 22.7863 128.904 23.8395 128.904 25.1161C128.904 26.3927 129.319 27.4459 130.116 28.2438ZM137.457 17.4247H141.446V32.8395H137.457V31.0204C136.276 32.5203 134.585 33.2863 132.446 33.2863C130.404 33.2863 128.616 32.4884 127.148 30.9246C125.68 29.3608 124.946 27.414 124.946 25.148C124.946 22.8821 125.68 20.9353 127.148 19.3715C128.616 17.8076 130.372 17.0098 132.446 17.0098C134.616 17.0098 136.276 17.7757 137.457 19.2757V17.4247Z" fill="#FBFBFB"/>
<path id="Vector_6" d="M153.35 21.2229H149.871V27.6378C149.871 28.1803 149.999 28.5633 150.286 28.8186C150.542 29.074 150.957 29.2016 151.467 29.2335C151.978 29.2654 152.616 29.2654 153.382 29.2335V32.8399C150.637 33.159 148.723 32.9037 147.606 32.0739C146.489 31.2442 145.914 29.7761 145.914 27.6697V21.2229H143.233V17.3931H145.914V14.2655L149.903 13.0527V17.3612H153.382V21.2229H153.35Z" fill="#FBFBFB"/>
<path id="Vector_7" d="M155.648 32.839V17.4241H159.637V32.839H155.648ZM157.626 15.5731C156.956 15.5731 156.414 15.3178 155.903 14.839C155.424 14.3603 155.169 13.7859 155.169 13.1156C155.169 12.4454 155.424 11.871 155.903 11.3922C156.382 10.9135 156.956 10.6582 157.626 10.6582C158.297 10.6582 158.871 10.9135 159.382 11.3922C159.86 11.871 160.116 12.4454 160.116 13.1156C160.116 13.7859 159.86 14.3284 159.382 14.839C158.871 15.3178 158.297 15.5731 157.626 15.5731Z" fill="#FBFBFB"/>
<path id="Vector_8" d="M170.105 33.2531C167.775 33.2531 165.86 32.4871 164.297 30.9233C162.733 29.3595 161.967 27.4446 161.967 25.1148C161.967 22.817 162.733 20.8702 164.297 19.3063C165.86 17.7425 167.775 16.9766 170.105 16.9766C171.605 16.9766 172.977 17.3276 174.19 18.0617C175.435 18.7957 176.36 19.7531 176.999 20.9659L173.584 22.9765C173.265 22.3382 172.818 21.8276 172.18 21.4765C171.541 21.0936 170.839 20.934 170.073 20.934C168.892 20.934 167.903 21.317 167.105 22.1148C166.339 22.9127 165.924 23.9021 165.924 25.1467C165.924 26.3595 166.307 27.3489 167.105 28.1467C167.871 28.9446 168.86 29.3276 170.073 29.3276C170.871 29.3276 171.573 29.1361 172.211 28.785C172.85 28.434 173.297 27.9233 173.616 27.285L177.063 29.2638C176.392 30.4765 175.435 31.434 174.19 32.168C172.945 32.902 171.605 33.2531 170.105 33.2531Z" fill="#FBFBFB"/>
</g>
<path id="Vector_9" d="M23.4254 43.9147L43.9466 23.4254L41.0105 20.4893L23.4254 38.0743L5.87232 20.4893L20.5212 5.87232L32.202 17.5531L23.4254 26.3297L17.617 20.4893L19.0531 19.0531L20.5212 17.585L23.4254 14.6489L20.5212 11.7446L11.7446 20.4893L23.4254 32.202L38.0743 17.5531L20.5212 0L0 20.4893L23.4254 43.9147Z" fill="#38C776"/>
</g>
</svg>
