<svg preserveAspectRatio="none" width="100%" height="100%" overflow="visible" style="display: block;" viewBox="0 0 118.104 29.2921" fill="none" xmlns="http://www.w3.org/2000/svg">
<g id="Amazatic-Logo">
<g id="Group 2">
<path id="Vector" d="M35.6566 16.6456H39.7013L37.6151 10.7702L35.6566 16.6456ZM41.5533 21.9037L40.6379 19.3066H34.7199L33.8471 21.9037H30.7817L35.8269 7.51312H39.3394L44.4272 21.9037H41.5533Z" fill="#FBFBFB"/>
<path id="Vector_2" d="M56.7318 11.3237C57.9026 11.3237 58.8606 11.7069 59.5631 12.4733C60.2656 13.2396 60.6275 14.2615 60.6275 15.56V21.8825H57.9665V15.7516C57.9665 15.1343 57.8175 14.6446 57.5194 14.304C57.2214 13.9634 56.7957 13.7931 56.2422 13.7931C55.6461 13.7931 55.1778 13.9847 54.8372 14.3892C54.4966 14.7937 54.3263 15.3684 54.3263 16.1135V21.8825H51.6653V15.7516C51.6653 15.1343 51.5163 14.6446 51.2182 14.304C50.9202 13.9634 50.4945 13.7931 49.941 13.7931C49.3449 13.7931 48.8766 13.9847 48.536 14.3892C48.1954 14.7937 48.0038 15.3684 48.0038 16.1135V21.8825H45.3428V11.6218H48.0038V12.7074C48.6211 11.7921 49.5791 11.3237 50.8564 11.3237C52.1123 11.3237 53.049 11.8134 53.6451 12.8139C54.3688 11.8134 55.3907 11.3237 56.7318 11.3237Z" fill="#FBFBFB"/>
<path id="Vector_3" d="M65.48 18.8392C66.0122 19.3714 66.6934 19.6481 67.5236 19.6481C68.3538 19.6481 69.0351 19.3714 69.5673 18.8392C70.0994 18.307 70.3762 17.6045 70.3762 16.753C70.3762 15.9015 70.0994 15.199 69.5673 14.6668C69.0351 14.1346 68.3538 13.8578 67.5236 13.8578C66.6934 13.8578 66.0122 14.1346 65.48 14.6668C64.9478 15.199 64.671 15.9015 64.671 16.753C64.671 17.6045 64.9478 18.307 65.48 18.8392ZM70.3762 11.6226H73.0372V21.9047H70.3762V20.6912C69.5885 21.6918 68.4603 22.2027 67.034 22.2027C65.6716 22.2027 64.4795 21.6705 63.5002 20.6274C62.521 19.5843 62.0314 18.2857 62.0314 16.7743C62.0314 15.2628 62.521 13.9643 63.5002 12.9212C64.4795 11.8781 65.6503 11.3459 67.034 11.3459C68.4816 11.3459 69.5885 11.8568 70.3762 12.8573V11.6226Z" fill="#FBFBFB"/>
<path id="Vector_4" d="M78.3172 19.4134H82.8728V21.9041H74.7621V20.1372L79.1048 14.1128H74.975V11.6221H82.6599V13.3677L78.3172 19.4134Z" fill="#FBFBFB"/>
<path id="Vector_5" d="M86.7908 18.8392C87.323 19.3714 88.0042 19.6481 88.8344 19.6481C89.6647 19.6481 90.3459 19.3714 90.8781 18.8392C91.4103 18.307 91.687 17.6045 91.687 16.753C91.687 15.9015 91.4103 15.199 90.8781 14.6668C90.3459 14.1346 89.6647 13.8578 88.8344 13.8578C88.0042 13.8578 87.323 14.1346 86.7908 14.6668C86.2586 15.199 85.9819 15.9015 85.9819 16.753C85.9819 17.6045 86.2586 18.307 86.7908 18.8392ZM91.687 11.6226H94.348V21.9047H91.687V20.6912C90.8993 21.6918 89.7711 22.2027 88.3448 22.2027C86.9824 22.2027 85.7903 21.6705 84.811 20.6274C83.8318 19.5843 83.3422 18.2857 83.3422 16.7743C83.3422 15.2628 83.8318 13.9643 84.811 12.9212C85.7903 11.8781 86.9611 11.3459 88.3448 11.3459C89.7924 11.3459 90.8993 11.8568 91.687 12.8573V11.6226Z" fill="#FBFBFB"/>
<path id="Vector_6" d="M102.287 14.1561H99.9666V18.435C99.9666 18.7969 100.052 19.0523 100.243 19.2227C100.414 19.393 100.69 19.4781 101.031 19.4994C101.372 19.5207 101.797 19.5207 102.308 19.4994V21.9049C100.478 22.1178 99.2003 21.9475 98.4552 21.394C97.7101 20.8405 97.3269 19.8613 97.3269 18.4563V14.1561H95.5388V11.6016H97.3269V9.5154L99.9879 8.70646V11.5803H102.308V14.1561H102.287Z" fill="#FBFBFB"/>
<path id="Vector_7" d="M103.821 21.9043V11.6223H106.482V21.9043H103.821ZM105.14 10.3876C104.693 10.3876 104.332 10.2173 103.991 9.89796C103.672 9.57865 103.501 9.19546 103.501 8.74842C103.501 8.30138 103.672 7.9182 103.991 7.59888C104.31 7.27956 104.693 7.10926 105.14 7.10926C105.588 7.10926 105.971 7.27956 106.311 7.59888C106.631 7.9182 106.801 8.30138 106.801 8.74842C106.801 9.19546 106.631 9.55736 106.311 9.89796C105.971 10.2173 105.588 10.3876 105.14 10.3876Z" fill="#FBFBFB"/>
<path id="Vector_8" d="M113.463 22.1805C111.909 22.1805 110.632 21.6696 109.589 20.6265C108.546 19.5834 108.035 18.3061 108.035 16.7521C108.035 15.2194 108.546 13.9209 109.589 12.8778C110.632 11.8346 111.909 11.3237 113.463 11.3237C114.464 11.3237 115.379 11.5579 116.188 12.0475C117.018 12.5371 117.636 13.1758 118.062 13.9847L115.784 15.3259C115.571 14.9001 115.273 14.5595 114.847 14.3253C114.421 14.0699 113.953 13.9634 113.442 13.9634C112.654 13.9634 111.995 14.2189 111.462 14.7511C110.951 15.2833 110.675 15.9432 110.675 16.7734C110.675 17.5824 110.93 18.2423 111.462 18.7745C111.973 19.3067 112.633 19.5621 113.442 19.5621C113.974 19.5621 114.443 19.4344 114.868 19.2002C115.294 18.9661 115.592 18.6255 115.805 18.1997L118.104 19.5196C117.657 20.3285 117.018 20.9671 116.188 21.4567C115.358 21.9464 114.464 22.1805 113.463 22.1805Z" fill="#FBFBFB"/>
</g>
<path id="Vector_9" d="M15.6253 29.2921L29.3133 15.6253L27.3549 13.6668L15.6253 25.3964L3.91696 13.6668L13.6881 3.91696L21.4794 11.7083L15.6253 17.5625L11.7509 13.6668L12.7088 12.7088L13.6881 11.7296L15.6253 9.77112L13.6881 7.83392L7.83392 13.6668L15.6253 21.4794L25.3964 11.7083L13.6881 0L0 13.6668L15.6253 29.2921Z" fill="#38C776"/>
</g>
</svg>
