<svg width="100%" height="100%" viewBox="0 0 14 14" fill="none" xmlns="http://www.w3.org/2000/svg">
<g transform="translate(0, 0)">
<path d="M1.61463 10.9208C1.14676 10.9208 0.689677 10.8014 0.275427 10.5688C0.062289 10.4591 -0.020263 10.1844 0.107065 9.97785C0.530118 9.30183 0.682884 8.47547 0.489189 7.69831C0.288423 6.89264 -0.00206829 6.21408 1.11014e-05 5.36117C0.00721967 2.36883 2.49781 -0.0570302 5.48705 0.0010206C8.37429 0.0591754 10.7538 2.48629 10.7538 5.37434C10.7538 9.14619 6.80098 11.7943 3.31131 10.3378C2.83031 10.7154 2.22573 10.9208 1.61463 10.9208ZM1.04612 9.99993C1.70349 10.2041 2.44281 10.041 2.94974 9.55091C3.07464 9.43013 3.26147 9.39974 3.41819 9.4747C6.40583 10.9032 9.92205 8.66417 9.92201 5.37434C9.92201 2.91943 7.92496 0.882041 5.47031 0.83262C2.94066 0.782367 0.837868 2.83116 0.831769 5.36318C0.829793 6.17329 1.14586 6.82072 1.31859 7.58814C1.50057 8.39686 1.40471 9.25206 1.04612 9.99993Z" fill="white"/>
</g>
<g transform="translate(4.96, 4.84)">
<path d="M7.42575 9.15801C6.81469 9.15801 6.21007 8.9525 5.72914 8.57501C3.87328 9.34956 1.66573 8.99682 0.144061 7.68269C-0.0297762 7.53256 -0.0489758 7.26996 0.101122 7.09608C0.251254 6.92228 0.513847 6.90301 0.687684 7.05318C2.03728 8.2187 4.01378 8.48088 5.62223 7.71191C5.77891 7.63691 5.96571 7.66734 6.09068 7.78812C6.59757 8.27817 7.33693 8.44137 7.9943 8.2371C7.57128 7.35477 7.51267 6.34392 7.84049 5.40811C7.84344 5.39968 7.84666 5.3914 7.85012 5.38315C8.08953 4.81876 8.21017 4.21891 8.20868 3.60035C8.20605 2.50976 7.84326 1.50092 7.15949 0.682841C7.0122 0.506575 7.03566 0.244324 7.21189 0.0970306C7.38808 -0.0502971 7.6504 -0.0267997 7.79769 0.149432C8.59604 1.10462 9.03739 2.32944 9.04044 3.59834C9.04221 4.32514 8.90119 5.03048 8.62134 5.69507C8.32738 6.546 8.46258 7.45711 8.93332 8.21496C9.06075 8.42158 8.97813 8.69624 8.76492 8.80607C8.35074 9.03858 7.89355 9.15798 7.42575 9.15801Z" fill="white"/>
</g>
<g transform="translate(4.71, 4.74)">
<path d="M0.658059 1.31545C1.02149 1.31545 1.31612 1.02098 1.31612 0.657724C1.31612 0.294474 1.02149 0 0.658059 0C0.294623 0 0 0.294474 0 0.657724C0 1.02098 0.294623 1.31545 0.658059 1.31545Z" fill="white"/>
</g>
<g transform="translate(2.29, 4.74)">
<path d="M0.658059 1.31545C1.02149 1.31545 1.31612 1.02098 1.31612 0.657724C1.31612 0.294474 1.02149 0 0.658059 0C0.294623 0 0 0.294474 0 0.657724C0 1.02098 0.294623 1.31545 0.658059 1.31545Z" fill="white"/>
</g>
<g transform="translate(7.14, 4.74)">
<path d="M0.658059 1.31545C1.02149 1.31545 1.31612 1.02098 1.31612 0.657724C1.31612 0.294474 1.02149 0 0.658059 0C0.294623 0 0 0.294474 0 0.657724C0 1.02098 0.294623 1.31545 0.658059 1.31545Z" fill="white"/>
</g>
</svg>
