<svg preserveAspectRatio="none" width="100%" height="100%" overflow="visible" style="display: block;" viewBox="0 0 10.5011 11.3752" fill="none" xmlns="http://www.w3.org/2000/svg">
<g id="layer1">
<path id="path6789" d="M5.20866 0.000173641C4.67028 0.00447285 4.12484 0.0913843 3.59114 0.269338C1.15139 1.08286 -0.344047 3.55071 0.0680321 6.08929C0.480128 8.62786 2.67959 10.4976 5.2514 10.4976C5.30885 10.4978 5.36576 10.4867 5.41893 10.465C5.4721 10.4432 5.52045 10.4111 5.56123 10.3707C5.60202 10.3302 5.63446 10.2821 5.65666 10.2291C5.67885 10.1761 5.69039 10.1193 5.69062 10.0618C5.69039 10.0044 5.67885 9.94751 5.65666 9.89451C5.63446 9.84152 5.60202 9.79341 5.56123 9.75294C5.52045 9.71248 5.4721 9.68045 5.41893 9.65867C5.36576 9.63689 5.30885 9.62579 5.2514 9.62602C3.10262 9.62602 1.2771 8.07185 0.932801 5.95085C0.588501 3.82982 1.83042 1.77961 3.86884 1.09991C5.90729 0.420192 8.12898 1.315 9.12653 3.21819C10.1241 5.12138 9.59514 7.458 7.87638 8.74761C7.8303 8.78212 7.79147 8.82538 7.76214 8.87492C7.73281 8.92445 7.71356 8.97928 7.70547 9.03628C7.69737 9.09328 7.70063 9.15131 7.71501 9.20706C7.72938 9.2628 7.75459 9.31516 7.78924 9.36113C7.82375 9.40733 7.86704 9.44626 7.91665 9.47567C7.96626 9.50507 8.02124 9.52438 8.07833 9.53247C8.13543 9.54057 8.19352 9.5373 8.24935 9.52285C8.30518 9.5084 8.35761 9.48306 8.40361 9.44828C10.4608 7.90476 11.0955 5.08933 9.90153 2.81144C8.96877 1.03183 7.13146 -0.0149199 5.20866 0.000173641ZM7.44403 2.62603C7.32862 2.6249 7.21743 2.66941 7.13469 2.74988L5.2514 4.59046L3.80732 3.18567C3.76625 3.14535 3.7176 3.11354 3.66421 3.09205C3.61082 3.07056 3.55372 3.05981 3.49617 3.06042C3.43862 3.06104 3.38176 3.07301 3.32884 3.09563C3.27592 3.11826 3.228 3.1511 3.1878 3.19228C3.14757 3.23358 3.11588 3.28243 3.0946 3.33602C3.07331 3.38961 3.06284 3.44687 3.06376 3.50453C3.06469 3.56218 3.07701 3.61908 3.1 3.67196C3.12298 3.72484 3.15616 3.77265 3.19769 3.81265L4.94857 5.51394C5.03025 5.59337 5.13968 5.63782 5.25362 5.63782C5.36755 5.63782 5.47698 5.59337 5.55866 5.51394L7.74533 3.37345C7.82773 3.29235 7.87464 3.18194 7.87588 3.06634C7.87712 2.95074 7.83258 2.83933 7.75194 2.75649C7.67097 2.6741 7.55953 2.62742 7.44403 2.62603ZM6.56558 7.00017C6.44955 6.99972 6.33811 7.04538 6.25574 7.12711C6.17338 7.20884 6.12686 7.31993 6.12641 7.43596V9.62602C6.12686 9.74205 6.17338 9.85315 6.25574 9.93487C6.33811 10.0166 6.44955 10.0623 6.56558 10.0618C6.68102 10.0614 6.79162 10.0153 6.87325 9.93367C6.95488 9.85204 7.00092 9.74146 7.00137 9.62602V7.43596C7.00092 7.32052 6.95488 7.20994 6.87325 7.12831C6.79162 7.04668 6.68102 7.00062 6.56558 7.00017ZM6.56392 10.5002C6.50646 10.5002 6.44961 10.5115 6.39653 10.5335C6.34345 10.5555 6.29521 10.5877 6.25458 10.6283C6.21396 10.6689 6.18175 10.7172 6.15976 10.7702C6.13778 10.8233 6.12646 10.8802 6.12646 10.9377C6.12646 11.0537 6.17254 11.165 6.25458 11.247C6.33663 11.3291 6.44789 11.3752 6.56392 11.3752C6.67995 11.3752 6.79125 11.3291 6.8733 11.247C6.95534 11.165 7.00142 11.0537 7.00142 10.9377C7.00142 10.8802 6.9901 10.8233 6.96812 10.7702C6.94613 10.7172 6.91392 10.6689 6.8733 10.6283C6.83267 10.5877 6.78443 10.5555 6.73135 10.5335C6.67827 10.5115 6.62137 10.5002 6.56392 10.5002Z" fill="white"/>
</g>
</svg>
