<svg preserveAspectRatio="none" width="100%" height="100%" overflow="visible" style="display: block;" viewBox="0 0 14 14" fill="none" xmlns="http://www.w3.org/2000/svg">
<g id="fi_2891441" clip-path="url(#clip0_0_4)">
<path id="Vector" d="M4.69583 12.25H1.45833C0.653917 12.25 0 11.5961 0 10.7917V1.45833C0 0.653917 0.653917 0 1.45833 0H8.45833C9.26275 0 9.91667 0.653917 9.91667 1.45833V5.55917C9.91667 5.72017 9.786 5.85083 9.625 5.85083C9.464 5.85083 9.33333 5.72075 9.33333 5.55917V1.45833C9.33333 0.975917 8.94075 0.583333 8.45833 0.583333H1.45833C0.975917 0.583333 0.583333 0.975917 0.583333 1.45833V10.7917C0.583333 11.2741 0.975917 11.6667 1.45833 11.6667H4.69583C4.85683 11.6667 4.9875 11.7973 4.9875 11.9583C4.9875 12.1193 4.85683 12.25 4.69583 12.25Z" fill="#38C776" stroke="#38C776" stroke-width="0.2"/>
<path id="Vector_2" d="M7.875 5.25033H2.04167C1.88067 5.25033 1.75 5.11966 1.75 4.95866C1.75 4.79766 1.88067 4.66699 2.04167 4.66699H7.875C8.036 4.66699 8.16667 4.79766 8.16667 4.95866C8.16667 5.11966 8.036 5.25033 7.875 5.25033Z" fill="#38C776" stroke="#38C776" stroke-width="0.2"/>
<path id="Vector_3" d="M5.54167 7.58333H2.04167C1.88067 7.58333 1.75 7.45267 1.75 7.29167C1.75 7.13067 1.88067 7 2.04167 7H5.54167C5.70267 7 5.83333 7.13067 5.83333 7.29167C5.83333 7.45267 5.70267 7.58333 5.54167 7.58333Z" fill="#38C776" stroke="#38C776" stroke-width="0.2"/>
<path id="Vector_4" d="M4.95833 2.91634H2.04167C1.88067 2.91634 1.75 2.78567 1.75 2.62467C1.75 2.46367 1.88067 2.33301 2.04167 2.33301H4.95833C5.11933 2.33301 5.25 2.46367 5.25 2.62467C5.25 2.78567 5.11933 2.91634 4.95833 2.91634Z" fill="#38C776" stroke="#38C776" stroke-width="0.2"/>
<path id="Vector_5" d="M13.1276 14H6.71094C6.22852 14 5.83594 13.6074 5.83594 13.125C5.83594 12.9535 5.88319 12.7931 5.97302 12.6589L9.17435 7.42C9.32544 7.16275 9.61185 7 9.91927 7C10.2267 7 10.5131 7.16275 10.6665 7.42467L13.8719 12.67C13.9554 12.7931 14.0026 12.9535 14.0026 13.125C14.0026 13.6074 13.61 14 13.1276 14ZM9.91927 7.58333C9.81777 7.58333 9.72444 7.63583 9.67544 7.71925L6.46419 12.9739C6.4321 13.0217 6.41927 13.0702 6.41927 13.125C6.41927 13.2854 6.55052 13.4167 6.71094 13.4167H13.1276C13.288 13.4167 13.4193 13.2854 13.4193 13.125C13.4193 13.0702 13.4064 13.0217 13.3814 12.985L10.166 7.72392C10.1141 7.63583 10.0208 7.58333 9.91927 7.58333Z" fill="#38C776" stroke="#38C776" stroke-width="0.2"/>
<path id="Vector_6" d="M9.91667 11.6667C9.75567 11.6667 9.625 11.536 9.625 11.375V9.04167C9.625 8.88067 9.75567 8.75 9.91667 8.75C10.0777 8.75 10.2083 8.88067 10.2083 9.04167V11.375C10.2083 11.536 10.0777 11.6667 9.91667 11.6667Z" fill="#38C776" stroke="#38C776" stroke-width="0.2"/>
<path id="Vector_7" d="M9.91667 12.8333C10.0777 12.8333 10.2083 12.7027 10.2083 12.5417C10.2083 12.3806 10.0777 12.25 9.91667 12.25C9.75558 12.25 9.625 12.3806 9.625 12.5417C9.625 12.7027 9.75558 12.8333 9.91667 12.8333Z" fill="#38C776" stroke="#38C776" stroke-width="0.2"/>
</g>
<defs>
<clipPath id="clip0_0_4">
<rect width="14" height="14" fill="white"/>
</clipPath>
</defs>
</svg>
