<svg preserveAspectRatio="none" width="100%" height="100%" overflow="visible" style="display: block;" viewBox="0 0 14 14" fill="none" xmlns="http://www.w3.org/2000/svg">
<g id="arrow-trend-down (1) 1" clip-path="url(#clip0_0_12)">
<path id="Vector" d="M13.4167 4.66667C13.0941 4.66667 12.8333 4.92742 12.8333 5.25V8.5085L9.00492 4.68067C8.22092 3.89667 6.94517 3.89667 6.16117 4.68067L4.65792 6.18392C4.34117 6.50067 3.82492 6.50067 3.50817 6.18392L0.99575 3.67092C0.767667 3.44283 0.399 3.44283 0.170916 3.67092C-0.0571669 3.899 -0.0571669 4.26767 0.170916 4.49575L2.68392 7.00875C3.45508 7.77992 4.71217 7.77992 5.48333 7.00875L6.98658 5.5055C7.31558 5.1765 7.85108 5.1765 8.18067 5.5055L12.0085 9.33333H8.75C8.42742 9.33333 8.16667 9.59408 8.16667 9.91667C8.16667 10.2393 8.42742 10.5 8.75 10.5H12.25C13.2148 10.5 14 9.71483 14 8.75V5.25C14 4.92742 13.7393 4.66667 13.4167 4.66667Z" fill="#38C776"/>
</g>
<defs>
<clipPath id="clip0_0_12">
<rect width="14" height="14" fill="white"/>
</clipPath>
</defs>
</svg>
