<svg preserveAspectRatio="none" width="100%" height="100%" overflow="visible" style="display: block;" viewBox="0 0 14 14" fill="none" xmlns="http://www.w3.org/2000/svg">
<g id="fi_107755" clip-path="url(#clip0_0_25)">
<path id="Vector" d="M7.00003 7.42615e-05C3.1401 7.42615e-05 0 3.14037 0 7.0003C0.000324894 10.8598 3.14055 13.9999 7.00003 13.9999C10.8598 13.9999 14.0001 10.8599 14.0001 7.00024C14 3.14037 10.8598 7.42615e-05 7.00003 7.42615e-05ZM7.00003 0.974756C8.43093 0.974756 9.74662 1.47646 10.7813 2.3128L2.31279 10.7812C1.47658 9.74663 0.974811 8.431 0.974681 7.00024C0.974681 3.67781 3.67767 0.974756 7.00003 0.974756ZM7.00003 13.0253C5.45887 13.0253 4.05123 12.4433 2.98454 11.488L11.488 2.98455C12.4434 4.05124 13.0253 5.45901 13.0253 7.0003C13.0253 10.3225 10.3223 13.0253 7.00003 13.0253Z" fill="white"/>
</g>
<defs>
<clipPath id="clip0_0_25">
<rect width="14" height="14" fill="white"/>
</clipPath>
</defs>
</svg>
