<svg preserveAspectRatio="none" width="100%" height="100%" overflow="visible" style="display: block;" viewBox="0 0 14 14" fill="none" xmlns="http://www.w3.org/2000/svg">
<g id="fi_15401183" clip-path="url(#clip0_0_14)">
<path id="Vector" d="M4.56162 1.89068C4.52495 1.80791 4.56233 1.71106 4.6451 1.67439C5.38836 1.34515 6.18051 1.17824 6.99959 1.17824C7.84561 1.17824 8.66061 1.35538 9.42195 1.70472C9.50422 1.74248 9.54034 1.8398 9.50255 1.9221C9.47496 1.98223 9.41555 2.0177 9.35345 2.0177C9.33059 2.0177 9.30732 2.01288 9.28517 2.00271C8.56704 1.67319 7.79805 1.50609 6.99956 1.50609C6.22653 1.50609 5.47903 1.66357 4.77788 1.97416C4.69509 2.01083 4.59829 1.97345 4.56162 1.89068ZM12.0779 9.50258C12.1 9.51275 12.1233 9.51754 12.1461 9.51754C12.2082 9.51754 12.2677 9.48207 12.2953 9.42195C12.6446 8.66059 12.8217 7.84561 12.8217 6.99962C12.8217 6.18053 12.6548 5.38836 12.3256 4.64513C12.2889 4.56236 12.1921 4.52498 12.1093 4.56165C12.0265 4.59832 11.9891 4.69514 12.0258 4.77794C12.3364 5.47909 12.4939 6.22658 12.4939 6.99962C12.4939 7.79808 12.3268 8.56707 11.9972 9.2852C11.9595 9.3675 11.9956 9.46479 12.0779 9.50258ZM9.22206 12.0258C8.52091 12.3364 7.77317 12.4939 6.99959 12.4939C6.20189 12.4939 5.4329 12.3268 4.71393 11.9972C4.63159 11.9595 4.53433 11.9956 4.4966 12.078C4.45889 12.1603 4.49501 12.2575 4.57732 12.2953C5.33944 12.6446 6.15439 12.8218 6.99959 12.8218C7.81922 12.8218 8.61164 12.6548 9.35484 12.3256C9.43761 12.2889 9.47502 12.1921 9.43832 12.1093C9.40166 12.0265 9.30489 11.9891 9.22204 12.0258L9.22206 12.0258ZM1.92205 4.49662C1.83974 4.45886 1.74243 4.49501 1.70472 4.57734C1.35538 5.3395 1.17824 6.15445 1.17824 6.99962C1.17824 7.81922 1.34518 8.61164 1.67442 9.35487C1.70152 9.41607 1.76151 9.45243 1.8244 9.45243C1.84658 9.45243 1.86911 9.44789 1.89071 9.43835C1.97348 9.40168 2.01089 9.30486 1.97419 9.22206C1.66359 8.52091 1.50612 7.77317 1.50612 6.99959C1.50612 6.20189 1.67322 5.4329 2.00279 4.71393C2.0405 4.63162 2.00438 4.53433 1.92207 4.4966L1.92205 4.49662ZM9.77717 2.16612C9.77717 1.03204 10.6998 0.109402 11.8339 0.109402C12.968 0.109402 13.8906 1.03204 13.8906 2.16612C13.8906 3.3002 12.968 4.22283 11.8339 4.22283C10.6998 4.22283 9.77717 3.3002 9.77717 2.16612ZM13.1548 3.27988C13.0961 2.86218 12.6432 2.63941 12.2094 2.56588C12.0941 2.61554 11.9672 2.64318 11.8339 2.64318C11.7006 2.64318 11.5735 2.61557 11.4582 2.56594C11.0248 2.63944 10.5722 2.86202 10.5125 3.27925C10.8298 3.65542 11.3043 3.89498 11.8339 3.89498C12.3634 3.89498 12.8373 3.6557 13.1547 3.27988H13.1548ZM12.4582 1.69099C12.4582 1.3463 12.1782 1.06586 11.8339 1.06586C11.4897 1.06586 11.2088 1.3463 11.2088 1.69099C11.2088 2.03569 11.4892 2.31533 11.8339 2.31533C12.1786 2.31533 12.4582 2.03525 12.4582 1.69099ZM10.105 2.16612C10.105 2.44062 10.1696 2.70025 10.284 2.931C10.4295 2.64947 10.7184 2.43184 11.1116 2.31104C10.968 2.1443 10.8809 1.92768 10.8809 1.69096C10.8809 1.16547 11.3084 0.73798 11.8339 0.73798C12.3594 0.73798 12.7861 1.16547 12.7861 1.69096C12.7861 1.9276 12.6992 2.14416 12.5558 2.31088C12.9494 2.43171 13.2384 2.64953 13.3836 2.93133C13.4981 2.7005 13.5628 2.44076 13.5628 2.16612C13.5628 1.21283 12.7872 0.437254 11.8339 0.437254C10.8806 0.437254 10.105 1.21283 10.105 2.16612H10.105ZM0.109375 2.16612C0.109375 1.03201 1.03201 0.109375 2.16609 0.109375C3.30017 0.109375 4.2228 1.03201 4.2228 2.16609C4.2228 3.30017 3.30017 4.2228 2.16609 4.2228C1.03201 4.2228 0.109375 3.30017 0.109375 2.16612ZM3.48693 3.27988C3.42828 2.86218 2.97538 2.63941 2.54155 2.56588C2.42627 2.61554 2.29936 2.64318 2.16606 2.64318C2.03276 2.64318 1.90572 2.61557 1.79039 2.56594C1.35699 2.63944 0.904395 2.86202 0.844648 3.27925C1.16203 3.65542 1.6365 3.89498 2.16606 3.89498C2.69563 3.89498 3.16952 3.6557 3.48693 3.27988ZM2.79043 1.69099C2.79043 1.3463 2.51035 1.06586 2.16609 1.06586C1.82183 1.06586 1.54098 1.3463 1.54098 1.69099C1.54098 2.03569 1.82142 2.31533 2.16609 2.31533C2.51076 2.31533 2.79043 2.03525 2.79043 1.69099ZM0.437227 2.16612C0.437227 2.44062 0.50184 2.70022 0.616191 2.931C0.761742 2.64947 1.05063 2.43184 1.44378 2.31107C1.3002 2.14432 1.21313 1.92771 1.21313 1.69099C1.21313 1.1655 1.64063 0.738008 2.16612 0.738008C2.69161 0.738008 3.11834 1.1655 3.11834 1.69099C3.11834 1.92762 3.03138 2.14419 2.88799 2.3109C3.28158 2.43173 3.57057 2.64955 3.71585 2.93133C3.83031 2.7005 3.89498 2.44076 3.89498 2.16612C3.89498 1.21283 3.1194 0.437254 2.16612 0.437254C1.21283 0.437254 0.437227 1.2128 0.437227 2.16612ZM13.8906 11.8339C13.8906 12.968 12.968 13.8906 11.8339 13.8906C10.6998 13.8906 9.77717 12.968 9.77717 11.8339C9.77717 10.6998 10.6998 9.7772 11.8339 9.7772C12.968 9.7772 13.8906 10.6998 13.8906 11.8339ZM13.1547 12.9477C13.096 12.5308 12.6431 12.3078 12.2093 12.2337C12.094 12.2833 11.9671 12.3109 11.8339 12.3109C11.7006 12.3109 11.5736 12.2834 11.4583 12.2338C11.0249 12.3078 10.5722 12.5307 10.5125 12.947C10.8299 13.3232 11.3043 13.5627 11.8339 13.5627C12.3635 13.5627 12.8374 13.3235 13.1548 12.9477H13.1547ZM12.4582 11.3588C12.4582 11.0141 12.1781 10.7336 11.8339 10.7336C11.4896 10.7336 11.2088 11.0141 11.2088 11.3588C11.2088 11.7035 11.4892 11.9831 11.8339 11.9831C12.1786 11.9831 12.4582 11.703 12.4582 11.3588ZM13.5627 11.8339C13.5627 10.8806 12.7872 10.105 11.8339 10.105C10.8806 10.105 10.105 10.8806 10.105 11.8339C10.105 12.1085 10.1697 12.3682 10.2841 12.599C10.4298 12.3178 10.7186 12.1002 11.1118 11.9791C10.9681 11.8123 10.8809 11.5956 10.8809 11.3587C10.8809 10.8332 11.3084 10.4057 11.8339 10.4057C12.3594 10.4057 12.7861 10.8332 12.7861 11.3587C12.7861 11.5955 12.699 11.8122 12.5555 11.9789C12.9491 12.1001 13.2381 12.3179 13.3835 12.5993C13.498 12.3684 13.5627 12.1086 13.5627 11.8339ZM4.2228 11.8339C4.2228 12.968 3.30017 13.8906 2.16609 13.8906C1.03201 13.8906 0.109375 12.968 0.109375 11.8339C0.109375 10.6998 1.03201 9.7772 2.16609 9.7772C3.30017 9.7772 4.2228 10.6998 4.2228 11.8339ZM3.48693 12.9476C3.42828 12.5308 2.97536 12.3078 2.54146 12.2337C2.42621 12.2833 2.29934 12.3109 2.16609 12.3109C2.03284 12.3109 1.90583 12.2833 1.79052 12.2337C1.35707 12.3078 0.904449 12.5306 0.844703 12.947C1.16208 13.3232 1.63655 13.5627 2.16612 13.5627C2.69568 13.5627 3.16955 13.3234 3.48693 12.9476ZM2.79043 11.3587C2.79043 11.014 2.51035 10.7336 2.16609 10.7336C1.82183 10.7336 1.54098 11.014 1.54098 11.3587C1.54098 11.7034 1.82142 11.9831 2.16609 11.9831C2.51076 11.9831 2.79043 11.703 2.79043 11.3587ZM3.89495 11.8339C3.89495 10.8806 3.11938 10.105 2.16609 10.105C1.2128 10.105 0.437227 10.8806 0.437227 11.8339C0.437227 12.1085 0.501895 12.3682 0.616301 12.599C0.761934 12.3178 1.05082 12.1002 1.444 11.9791C1.30028 11.8123 1.21308 11.5956 1.21308 11.3587C1.21308 10.8332 1.64057 10.4057 2.16606 10.4057C2.69155 10.4057 3.11828 10.8332 3.11828 11.3587C3.11828 11.5955 3.03122 11.8122 2.88769 11.9789C3.2813 12.1001 3.57033 12.3179 3.71566 12.5993C3.8302 12.3684 3.89493 12.1086 3.89493 11.8339H3.89495ZM9.78504 9.97511C9.79467 9.97683 9.80432 9.9779 9.81397 9.9779C9.82431 9.9779 9.83459 9.97686 9.84468 9.97495C9.84495 9.97489 9.84525 9.97486 9.84553 9.97481C9.85543 9.97287 9.86511 9.96997 9.87448 9.96622C9.87503 9.966 9.87558 9.96587 9.8761 9.96565C9.88556 9.96177 9.89466 9.95695 9.90333 9.95132C9.90371 9.95107 9.9041 9.95088 9.90448 9.95064C9.91353 9.94465 9.92206 9.9377 9.92994 9.92986C9.93697 9.92283 9.94298 9.91509 9.94853 9.90708C9.95014 9.90475 9.95162 9.9024 9.9531 9.90002C9.95717 9.89343 9.96078 9.88662 9.96387 9.87957C9.96466 9.87777 9.96565 9.87604 9.96636 9.87421C9.96978 9.8656 9.97232 9.85674 9.97421 9.84771C9.97473 9.84528 9.975 9.84285 9.97541 9.84039C9.97659 9.83317 9.9773 9.82592 9.97752 9.81857C9.97757 9.81611 9.97773 9.81364 9.97771 9.81118C9.97754 9.80189 9.9768 9.79256 9.97503 9.78327C9.97478 9.78204 9.97434 9.78086 9.9741 9.77963C9.97281 9.77361 9.97142 9.7676 9.96945 9.76169L9.71056 8.99125C9.68171 8.90542 9.58872 8.85924 9.50294 8.88809C9.41711 8.91693 9.37092 9.00988 9.39977 9.09571L9.43627 9.20432L7.2319 6.99995L9.43595 4.7959L9.3998 4.90336C9.37092 4.98917 9.41711 5.08214 9.50291 5.11101C9.52025 5.11684 9.53786 5.1196 9.55519 5.1196C9.62366 5.1196 9.68754 5.07634 9.71056 5.00787L9.96945 4.2382C9.97144 4.23224 9.97284 4.22622 9.97413 4.22015C9.97437 4.21895 9.97484 4.2178 9.97505 4.2166C9.97683 4.20733 9.97757 4.198 9.97773 4.18871C9.97776 4.18622 9.97763 4.18376 9.97754 4.18127C9.97732 4.17397 9.97664 4.16672 9.97546 4.15953C9.97505 4.15707 9.97478 4.15461 9.97426 4.15215C9.97235 4.14313 9.9698 4.13427 9.96641 4.12568C9.96568 4.12382 9.96466 4.12207 9.96387 4.12021C9.96081 4.11318 9.95723 4.1064 9.95315 4.09984C9.95168 4.09746 9.9502 4.09508 9.94859 4.09276C9.94304 4.08477 9.93705 4.07703 9.93002 4.07001C9.92299 4.06298 9.93002 4.07001 9.92999 4.06998C9.92296 4.06295 9.91525 4.05696 9.90727 4.05141C9.90495 4.0498 9.90259 4.0483 9.90019 4.04682C9.89362 4.04277 9.88684 4.03919 9.87984 4.0361C9.87798 4.03528 9.87623 4.0343 9.87437 4.03356C9.86582 4.03017 9.85696 4.02763 9.84796 4.02574C9.84545 4.02522 9.84296 4.02492 9.84041 4.02451C9.8333 4.02336 9.82611 4.02265 9.81889 4.02246C9.81635 4.02237 9.81384 4.02221 9.81129 4.02227C9.80202 4.02243 9.79275 4.02317 9.78354 4.02492C9.78217 4.02516 9.78089 4.02566 9.77955 4.02596C9.77364 4.02724 9.76773 4.02858 9.76191 4.03052L8.99144 4.28941C8.90561 4.31826 8.85943 4.4112 8.88828 4.49704C8.9171 4.58284 9.01004 4.62908 9.0959 4.6002L9.20453 4.5637L7.00016 6.76807L4.79612 4.56403L4.90358 4.60018C4.98936 4.629 5.08236 4.58287 5.11123 4.49706C5.14008 4.41126 5.09392 4.31829 5.00812 4.28941L4.23845 4.03052C4.23262 4.02855 4.22669 4.02721 4.22075 4.02593C4.21941 4.02563 4.2181 4.02514 4.21676 4.02489C4.20755 4.02314 4.1983 4.0224 4.18906 4.02224C4.18646 4.02218 4.18392 4.02235 4.18132 4.02243C4.17413 4.02265 4.16702 4.02333 4.15997 4.02448C4.1574 4.02489 4.15486 4.02519 4.15229 4.02574C4.14332 4.02763 4.13451 4.03017 4.12598 4.03353C4.12404 4.0343 4.12223 4.03534 4.12032 4.03616C4.11338 4.03922 4.10668 4.04275 4.10017 4.04677C4.09773 4.04827 4.09536 4.04977 4.093 4.05141C4.08502 4.05694 4.07731 4.06295 4.07028 4.06998C4.06325 4.07701 4.05724 4.08475 4.05169 4.09273C4.05007 4.09505 4.0486 4.09741 4.04712 4.09979C4.04305 4.10637 4.03946 4.11318 4.03637 4.12021C4.03558 4.12202 4.0346 4.12377 4.03386 4.1256C4.03047 4.13418 4.0279 4.14307 4.02601 4.15209C4.02549 4.15455 4.02522 4.15699 4.02481 4.15948C4.02363 4.16667 4.02295 4.17389 4.02273 4.18119C4.02265 4.1837 4.02251 4.18616 4.02254 4.18865C4.0227 4.19795 4.02344 4.20727 4.02522 4.21652C4.02544 4.21775 4.0259 4.21889 4.02615 4.22012C4.02743 4.22617 4.02883 4.23218 4.03082 4.23814L4.28971 5.00782C4.31277 5.07631 4.37661 5.11954 4.44508 5.11954C4.46239 5.11954 4.48003 5.11675 4.49736 5.11096C4.5832 5.08208 4.62935 4.98911 4.60048 4.90331L4.56433 4.79585L6.76837 6.99989L4.564 9.20426L4.6005 9.09565C4.62935 9.00982 4.58314 8.91688 4.49734 8.88803C4.41142 8.85913 4.31854 8.90539 4.28971 8.9912L4.03082 9.76164C4.02883 9.76754 4.02746 9.77356 4.02618 9.77957C4.0259 9.78081 4.02546 9.78198 4.02525 9.78321C4.02347 9.79248 4.02273 9.8018 4.02257 9.8111C4.02251 9.81359 4.02268 9.81602 4.02276 9.81851C4.02298 9.82584 4.02366 9.83309 4.02484 9.8403C4.02525 9.84277 4.02552 9.8452 4.02604 9.84763C4.02795 9.85668 4.0305 9.86554 4.03389 9.87416C4.0346 9.87596 4.03558 9.87768 4.03637 9.87949C4.03946 9.88654 4.04307 9.89338 4.04715 9.89997C4.04862 9.90235 4.0501 9.9047 4.05171 9.907C4.05724 9.91498 4.06325 9.92269 4.07028 9.92972C4.07028 9.92972 4.07028 9.92972 4.07031 9.92975C4.07816 9.93759 4.08669 9.94451 4.09571 9.9505C4.09612 9.95077 4.09653 9.95096 4.09694 9.95124C4.10558 9.95684 4.11466 9.96166 4.12409 9.96551C4.12464 9.96573 4.12521 9.96589 4.12576 9.96611C4.13514 9.96983 4.14479 9.97273 4.15466 9.97467C4.15494 9.97473 4.15524 9.97475 4.15551 9.97481C4.1656 9.97672 4.17588 9.97776 4.18622 9.97776C4.19587 9.97776 4.20555 9.9767 4.21518 9.97497C4.21843 9.9744 4.2216 9.97336 4.22483 9.97259C4.22937 9.97147 4.23396 9.97073 4.23847 9.9692L5.00814 9.71031C5.09398 9.68144 5.14013 9.58847 5.11126 9.50266C5.08238 9.41683 4.98947 9.37073 4.90361 9.39955L4.79615 9.4357L7.00019 7.23166L9.20456 9.43603L9.09593 9.39952C9.01007 9.37065 8.91713 9.41689 8.88831 9.50269C8.85946 9.58852 8.90567 9.68146 8.99147 9.71031L9.76194 9.9692C9.76642 9.97071 9.77099 9.97147 9.77553 9.97257C9.77878 9.97336 9.78193 9.97437 9.78521 9.97497L9.78504 9.97511Z" fill="#38C776" stroke="#38C776" stroke-width="0.2"/>
</g>
<defs>
<clipPath id="clip0_0_14">
<rect width="14" height="14" fill="white"/>
</clipPath>
</defs>
</svg>
