<svg preserveAspectRatio="none" width="100%" height="100%" overflow="visible" style="display: block;" viewBox="0 0 14 14" fill="none" xmlns="http://www.w3.org/2000/svg">
<g id="Icon" clip-path="url(#clip0_0_39)">
<path id="Vector" d="M7 2.91667C7.00069 2.68335 6.95471 2.45225 6.86478 2.23697C6.77485 2.02168 6.64277 1.82655 6.47632 1.66305C6.30987 1.49955 6.11241 1.37099 5.89555 1.28493C5.67869 1.19886 5.4468 1.15703 5.21354 1.16189C4.98027 1.16675 4.75033 1.21821 4.53725 1.31324C4.32416 1.40827 4.13223 1.54495 3.97273 1.71524C3.81324 1.88553 3.68941 2.08599 3.60853 2.30484C3.52765 2.52369 3.49134 2.7565 3.50175 2.98958C3.15887 3.07775 2.84054 3.24278 2.57088 3.47218C2.30123 3.70159 2.08731 3.98934 1.94533 4.31366C1.80334 4.63798 1.73703 4.99036 1.75139 5.3441C1.76576 5.69784 1.86044 6.04368 2.02825 6.35542C1.73319 6.59513 1.50117 6.9033 1.35236 7.25313C1.20356 7.60296 1.14249 7.98385 1.17446 8.36266C1.20643 8.74147 1.33048 9.10674 1.5358 9.42668C1.74113 9.74662 2.02152 10.0115 2.35258 10.1984C2.3117 10.5147 2.3361 10.836 2.42427 11.1426C2.51244 11.4491 2.66251 11.7342 2.86521 11.9805C3.06791 12.2267 3.31894 12.4288 3.60279 12.5742C3.88665 12.7196 4.1973 12.8053 4.51557 12.8259C4.83384 12.8466 5.15296 12.8018 5.45323 12.6943C5.75349 12.5868 6.02853 12.4188 6.26136 12.2009C6.49419 11.9829 6.67985 11.7195 6.8069 11.427C6.93394 11.1344 6.99966 10.8189 7 10.5V2.91667Z" stroke="#CCCCCC" stroke-width="1.16667" stroke-linecap="round" stroke-linejoin="round"/>
<path id="Vector_2" d="M7 2.91667C6.99931 2.68335 7.04529 2.45225 7.13522 2.23697C7.22515 2.02168 7.35723 1.82655 7.52368 1.66305C7.69013 1.49955 7.88759 1.37099 8.10445 1.28493C8.32131 1.19886 8.5532 1.15703 8.78646 1.16189C9.01973 1.16675 9.24967 1.21821 9.46275 1.31324C9.67584 1.40827 9.86777 1.54495 10.0273 1.71524C10.1868 1.88553 10.3106 2.08599 10.3915 2.30484C10.4724 2.52369 10.5087 2.7565 10.4982 2.98958C10.8411 3.07775 11.1595 3.24278 11.4291 3.47218C11.6988 3.70159 11.9127 3.98934 12.0547 4.31366C12.1967 4.63798 12.263 4.99036 12.2486 5.3441C12.2342 5.69784 12.1396 6.04368 11.9718 6.35542C12.2668 6.59513 12.4988 6.9033 12.6476 7.25313C12.7964 7.60296 12.8575 7.98385 12.8255 8.36266C12.7936 8.74147 12.6695 9.10674 12.4642 9.42668C12.2589 9.74662 11.9785 10.0115 11.6474 10.1984C11.6883 10.5147 11.6639 10.836 11.5757 11.1426C11.4876 11.4491 11.3375 11.7342 11.1348 11.9805C10.9321 12.2267 10.6811 12.4288 10.3972 12.5742C10.1133 12.7196 9.8027 12.8053 9.48443 12.8259C9.16616 12.8466 8.84704 12.8018 8.54677 12.6943C8.24651 12.5868 7.97147 12.4188 7.73864 12.2009C7.50581 11.9829 7.32015 11.7195 7.1931 11.427C7.06606 11.1344 7.00034 10.8189 7 10.5V2.91667Z" stroke="#CCCCCC" stroke-width="1.16667" stroke-linecap="round" stroke-linejoin="round"/>
<path id="Vector_3" d="M8.75 7.58333C8.26026 7.41105 7.8326 7.09741 7.52111 6.68209C7.20961 6.26676 7.02826 5.76839 7 5.25C6.97174 5.76839 6.79039 6.26676 6.47889 6.68209C6.1674 7.09741 5.73974 7.41105 5.25 7.58333" stroke="#CCCCCC" stroke-width="1.16667" stroke-linecap="round" stroke-linejoin="round"/>
<path id="Vector_4" d="M10.2661 3.79167C10.4073 3.54701 10.4871 3.27181 10.4988 2.98958" stroke="#CCCCCC" stroke-width="1.16667" stroke-linecap="round" stroke-linejoin="round"/>
<path id="Vector_5" d="M3.50175 2.98958C3.51329 3.27176 3.59294 3.54696 3.73392 3.79167" stroke="#CCCCCC" stroke-width="1.16667" stroke-linecap="round" stroke-linejoin="round"/>
<path id="Vector_6" d="M2.02825 6.356C2.13496 6.26909 2.24916 6.19179 2.3695 6.125" stroke="#CCCCCC" stroke-width="1.16667" stroke-linecap="round" stroke-linejoin="round"/>
<path id="Vector_7" d="M11.6305 6.125C11.7508 6.19179 11.865 6.26909 11.9718 6.356" stroke="#CCCCCC" stroke-width="1.16667" stroke-linecap="round" stroke-linejoin="round"/>
<path id="Vector_8" d="M3.5 10.5C3.09798 10.5002 2.70274 10.3965 2.35258 10.199" stroke="#CCCCCC" stroke-width="1.16667" stroke-linecap="round" stroke-linejoin="round"/>
<path id="Vector_9" d="M11.6474 10.199C11.2973 10.3965 10.902 10.5002 10.5 10.5" stroke="#CCCCCC" stroke-width="1.16667" stroke-linecap="round" stroke-linejoin="round"/>
</g>
<defs>
<clipPath id="clip0_0_39">
<rect width="14" height="14" fill="white"/>
</clipPath>
</defs>
</svg>
