<svg preserveAspectRatio="none" width="100%" height="100%" overflow="visible" style="display: block;" viewBox="0 0 14 14" fill="none" xmlns="http://www.w3.org/2000/svg">
<g id="Icon" clip-path="url(#clip0_0_16)">
<path id="Vector" d="M5.79658 9.04167C5.7445 8.83979 5.63928 8.65556 5.49186 8.50814C5.34444 8.36072 5.16021 8.2555 4.95833 8.20342L1.37958 7.28058C1.31853 7.26325 1.26479 7.22648 1.22652 7.17584C1.18826 7.12521 1.16756 7.06347 1.16756 7C1.16756 6.93653 1.18826 6.87479 1.22652 6.82416C1.26479 6.77352 1.31853 6.73675 1.37958 6.71942L4.95833 5.796C5.16014 5.74397 5.34432 5.63883 5.49173 5.49152C5.63915 5.34421 5.74441 5.1601 5.79658 4.95833L6.71942 1.37958C6.73657 1.31829 6.77331 1.26428 6.82402 1.22581C6.87473 1.18734 6.93664 1.16652 7.00029 1.16652C7.06394 1.16652 7.12585 1.18734 7.17656 1.22581C7.22728 1.26428 7.26401 1.31829 7.28117 1.37958L8.20342 4.95833C8.2555 5.16021 8.36072 5.34444 8.50814 5.49186C8.65556 5.63928 8.83979 5.7445 9.04167 5.79658L12.6204 6.71883C12.682 6.73581 12.7362 6.77251 12.7749 6.82329C12.8136 6.87408 12.8345 6.93616 12.8345 7C12.8345 7.06384 12.8136 7.12592 12.7749 7.1767C12.7362 7.22749 12.682 7.26419 12.6204 7.28117L9.04167 8.20342C8.83979 8.2555 8.65556 8.36072 8.50814 8.50814C8.36072 8.65556 8.2555 8.83979 8.20342 9.04167L7.28058 12.6204C7.26343 12.6817 7.22669 12.7357 7.17598 12.7742C7.12527 12.8127 7.06336 12.8335 6.99971 12.8335C6.93606 12.8335 6.87415 12.8127 6.82344 12.7742C6.77272 12.7357 6.73599 12.6817 6.71883 12.6204L5.79658 9.04167Z" stroke="#CCCCCC" stroke-width="1.16667" stroke-linecap="round" stroke-linejoin="round"/>
<path id="Vector_2" d="M11.6667 1.75V4.08333" stroke="#CCCCCC" stroke-width="1.16667" stroke-linecap="round" stroke-linejoin="round"/>
<path id="Vector_3" d="M12.8333 2.91667H10.5" stroke="#CCCCCC" stroke-width="1.16667" stroke-linecap="round" stroke-linejoin="round"/>
<path id="Vector_4" d="M2.33333 9.91667V11.0833" stroke="#CCCCCC" stroke-width="1.16667" stroke-linecap="round" stroke-linejoin="round"/>
<path id="Vector_5" d="M2.91667 10.5H1.75" stroke="#CCCCCC" stroke-width="1.16667" stroke-linecap="round" stroke-linejoin="round"/>
</g>
<defs>
<clipPath id="clip0_0_16">
<rect width="14" height="14" fill="white"/>
</clipPath>
</defs>
</svg>
