<svg preserveAspectRatio="none" width="100%" height="100%" overflow="visible" style="display: block;" viewBox="0 0 11.25 11.25" fill="none" xmlns="http://www.w3.org/2000/svg">
<g id="Icon">
<path id="Vector" d="M4.65797 7.26563C4.61612 7.1034 4.53156 6.95536 4.4131 6.8369C4.29464 6.71844 4.1466 6.63388 3.98437 6.59203L1.10859 5.85047C1.05953 5.83654 1.01635 5.80699 0.9856 5.7663C0.954851 5.72561 0.938215 5.676 0.938215 5.625C0.938215 5.574 0.954851 5.52439 0.9856 5.4837C1.01635 5.44301 1.05953 5.41346 1.10859 5.39953L3.98437 4.6575C4.14654 4.61569 4.29454 4.53121 4.413 4.41283C4.53146 4.29446 4.61605 4.14651 4.65797 3.98438L5.39953 1.10859C5.41332 1.05934 5.44284 1.01594 5.48359 0.985029C5.52434 0.954116 5.57408 0.937383 5.62523 0.937383C5.67638 0.937383 5.72613 0.954116 5.76688 0.985029C5.80763 1.01594 5.83715 1.05934 5.85094 1.10859L6.59203 3.98438C6.63388 4.1466 6.71843 4.29464 6.8369 4.4131C6.95536 4.53157 7.1034 4.61612 7.26562 4.65797L10.1414 5.39906C10.1909 5.4127 10.2345 5.44219 10.2656 5.483C10.2966 5.52382 10.3135 5.5737 10.3135 5.625C10.3135 5.6763 10.2966 5.72618 10.2656 5.767C10.2345 5.80781 10.1909 5.8373 10.1414 5.85094L7.26562 6.59203C7.1034 6.63388 6.95536 6.71844 6.8369 6.8369C6.71843 6.95536 6.63388 7.1034 6.59203 7.26563L5.85047 10.1414C5.83668 10.1907 5.80716 10.2341 5.76641 10.265C5.72566 10.2959 5.67592 10.3126 5.62477 10.3126C5.57362 10.3126 5.52387 10.2959 5.48312 10.265C5.44237 10.2341 5.41285 10.1907 5.39906 10.1414L4.65797 7.26563Z" stroke="white" stroke-width="0.9375" stroke-linecap="round" stroke-linejoin="round"/>
<path id="Vector_2" d="M9.375 1.40625V3.28125" stroke="white" stroke-width="0.9375" stroke-linecap="round" stroke-linejoin="round"/>
<path id="Vector_3" d="M10.3125 2.34375H8.4375" stroke="white" stroke-width="0.9375" stroke-linecap="round" stroke-linejoin="round"/>
<path id="Vector_4" d="M1.875 7.96875V8.90625" stroke="white" stroke-width="0.9375" stroke-linecap="round" stroke-linejoin="round"/>
<path id="Vector_5" d="M2.34375 8.4375H1.40625" stroke="white" stroke-width="0.9375" stroke-linecap="round" stroke-linejoin="round"/>
</g>
</svg>
