<svg preserveAspectRatio="none" width="100%" height="100%" overflow="visible" style="display: block;" viewBox="0 0 20 20" fill="none" xmlns="http://www.w3.org/2000/svg">
  <path d="M7.5 9.16667C9.34095 9.16667 10.8333 7.67428 10.8333 5.83333C10.8333 3.99238 9.34095 2.5 7.5 2.5C5.65905 2.5 4.16667 3.99238 4.16667 5.83333C4.16667 7.67428 5.65905 9.16667 7.5 9.16667Z" stroke="white" stroke-width="1.33333" stroke-linecap="round" stroke-linejoin="round"/>
  <path d="M1.66667 17.5C1.66667 14.2783 4.27834 11.6667 7.5 11.6667C10.7217 11.6667 13.3333 14.2783 13.3333 17.5" stroke="white" stroke-width="1.33333" stroke-linecap="round" stroke-linejoin="round"/>
  <path d="M13.3333 2.5C14.7141 2.5 15.8333 3.61929 15.8333 5C15.8333 6.38071 14.7141 7.5 13.3333 7.5" stroke="white" stroke-width="1.33333" stroke-linecap="round"/>
  <path d="M15.0833 10.8333C16.8602 11.0931 18.3333 12.5236 18.3333 14.1667V15.8333H15" stroke="white" stroke-width="1.33333" stroke-linecap="round" stroke-linejoin="round"/>
</svg>
