<svg preserveAspectRatio="none" width="100%" height="100%" overflow="visible" style="display: block;" viewBox="0 0 20 20" fill="none" xmlns="http://www.w3.org/2000/svg">
<g id="Icon">
<path id="Vector" d="M3.33333 16.6667H16.6667C17.1087 16.6667 17.5326 16.4911 17.8452 16.1785C18.1577 15.866 18.3333 15.442 18.3333 15V6.66667C18.3333 6.22464 18.1577 5.80072 17.8452 5.48816C17.5326 5.17559 17.1087 5 16.6667 5H10.0583C9.78382 4.99858 9.51391 4.92937 9.27258 4.79853C9.03125 4.66769 8.82598 4.47927 8.675 4.25L7.99167 3.25C7.84069 3.02073 7.63541 2.83231 7.39408 2.70147C7.15276 2.57062 6.88285 2.50142 6.60833 2.5H3.33333C2.89131 2.5 2.46738 2.67559 2.15482 2.98816C1.84226 3.30072 1.66667 3.72464 1.66667 4.16667V15C1.66667 15.9167 2.41667 16.6667 3.33333 16.6667Z" stroke="white" stroke-width="1.33333" stroke-linecap="round" stroke-linejoin="round"/>
<path id="Vector_2" d="M6.66667 8.33333V11.6667" stroke="white" stroke-width="1.33333" stroke-linecap="round" stroke-linejoin="round"/>
<path id="Vector_3" d="M10 8.33333V10" stroke="white" stroke-width="1.33333" stroke-linecap="round" stroke-linejoin="round"/>
<path id="Vector_4" d="M13.3333 8.33333V13.3333" stroke="white" stroke-width="1.33333" stroke-linecap="round" stroke-linejoin="round"/>
</g>
</svg>
