<svg preserveAspectRatio="none" width="100%" height="100%" overflow="visible" style="display: block;" viewBox="0 0 14.6755 11.1152" fill="none" xmlns="http://www.w3.org/2000/svg">
<g id="Group">
<path id="Vector" d="M14.6755 1.51776C14.6755 0.269601 13.2637 -0.442879 12.275 0.305121L11.34 1.01344V1.01552L7.33776 4.04512L3.33552 1.01344L2.40256 0.307041C1.41184 -0.44096 0 0.271681 0 1.51968V2.86576V10.1043C0 10.6627 0.44784 11.1149 1.00112 11.1149H3.33552V5.3912L7.33776 8.4208L11.34 5.3912V5.38912L11.3446 5.3856L11.34 5.3912V11.1149H13.6744C14.2275 11.1149 14.6755 10.6627 14.6755 10.1043V2.86592L14.6694 2.86832L14.6755 2.86384V1.51776Z" fill="#B5332A"/>
<path id="Vector_2" d="M1.00112 11.1152H3.33552V5.39149L0 2.86621V10.1048C0 10.663 0.44784 11.1152 1.00112 11.1152Z" fill="#4E85EB"/>
<path id="Vector_3" d="M11.3398 11.1152H13.6742C14.2274 11.1152 14.6754 10.663 14.6754 10.1046V2.86621L11.3398 5.39149V11.1152Z" fill="#58A45C"/>
<path id="Vector_4" d="M11.34 1.01344V5.38912L14.6755 2.86384V1.51776C14.6755 0.269601 13.2637 -0.442879 12.275 0.305121L11.34 1.01344Z" fill="#F2BC42"/>
<path id="Vector_5" d="M3.33594 5.39143V1.01367L7.33818 4.04535L11.3404 1.01575V5.39143L7.33818 8.42103L3.33594 5.39143Z" fill="#D85040"/>
<path id="Vector_6" d="M2.14577e-08 1.51984V2.86592L3.33552 5.3912V1.01344L2.40256 0.307041C1.41184 -0.440799 2.14577e-08 0.271681 2.14577e-08 1.51984Z" fill="#B5332A"/>
</g>
</svg>
