<svg preserveAspectRatio="none" width="100%" height="100%" overflow="visible" style="display: block;" viewBox="0 0 15.9975 13.2" fill="none" xmlns="http://www.w3.org/2000/svg">
<g id="Group">
<path id="Path_12_" d="M4 0L0 4L2 5.23803L4 4L5.12941 2L4 0Z" fill="#FF2820"/>
<path id="Path_11_" d="M4 4H0V9.2L2 10.2983L4 9.2V4Z" fill="#0084FF"/>
<path id="Path_10_" d="M0 9.2V11.8667C0 12.6 0.6 13.2 1.33334 13.2H4L5.12941 11.0768L4 9.2H0Z" fill="#0066DD"/>
<path id="Vector" d="M15.1714 1.41999L12.6975 3.37971V3.39981L11.8906 6.48012L12.6975 9.5974L15.1604 11.5796C15.4908 11.8569 15.9975 11.624 15.9975 11.1914V1.80818C15.9975 1.37562 15.5018 1.14271 15.1714 1.41999Z" fill="#00AD3C"/>
<path id="Vector_2" d="M12.7 3.37991V1.31803C12.7 0.593125 12.1128 0 11.395 0H8.785H4V4H8.9V6.6L11.5326 6.30672L12.7 3.37991Z" fill="#FFBA00"/>
<path id="Vector_3" d="M8.9 9.19961H4V13.1996H8.785H11.395C12.1128 13.1996 12.7 12.6074 12.7 11.8835V9.59961L11.394 6.91645L8.9 6.59961V9.19961Z" fill="#00AD3C"/>
<path id="Vector_4" d="M8.89844 6.59998L12.6984 9.59998V3.37988L8.89844 6.59998Z" fill="#00831E"/>
</g>
</svg>
