<svg preserveAspectRatio="none" width="100%" height="100%" overflow="visible" style="display: block;" viewBox="0 0 14.844 13.9258" fill="none" xmlns="http://www.w3.org/2000/svg">
<g id="Group">
<path id="Vector" d="M12.8657 4.70396C13.7932 4.70396 14.5478 3.94732 14.5478 3.01756C14.4554 0.780284 11.2758 0.780924 11.1836 3.01756C11.1836 3.94732 11.9383 4.70396 12.8657 4.70396Z" fill="#464EB8"/>
<path id="Vector_2" d="M13.9754 5.15634H10.973H10.9672C10.9664 5.15634 10.9667 5.15634 10.9658 5.15634C10.7861 5.15634 8.43696 5.15634 7.67968 5.15634V4.56754C7.80512 4.58978 7.93648 4.60466 8.0744 4.61042C8.08928 4.61058 8.10416 4.60946 8.11904 4.6093C8.17632 4.60834 8.23312 4.60562 8.28912 4.60082C8.30832 4.59906 8.32736 4.59746 8.34624 4.59522C8.41072 4.58802 8.4744 4.57858 8.53712 4.56626C8.54096 4.56546 8.54512 4.56498 8.54896 4.56434C8.84624 4.5037 9.12656 4.38514 9.37568 4.21714C9.60608 4.06178 9.8056 3.86466 9.96656 3.63874C10.0082 3.58418 10.0461 3.52722 10.0814 3.46898C10.0848 3.46322 10.0885 3.45778 10.0918 3.45186C10.119 3.40594 10.143 3.35842 10.1664 3.31042C10.1766 3.28962 10.1872 3.26882 10.1968 3.2477C10.2214 3.1925 10.2442 3.13634 10.2642 3.07922C10.2659 3.07442 10.2677 3.06978 10.2693 3.06514C10.4976 2.39186 10.3931 1.60018 10.0011 1.00818C9.89744 0.85634 9.7744 0.71922 9.63824 0.59634C9.61008 0.57186 9.5832 0.5461 9.5536 0.52322C9.43936 0.42914 9.316 0.34578 9.18496 0.2749C9.11936 0.23938 9.052 0.2069 8.98288 0.17778C8.91344 0.14706 8.84096 0.12178 8.76736 0.0988995C8.72512 0.0859395 8.68128 0.0763396 8.63808 0.0657796C8.59984 0.0564996 8.56208 0.0464196 8.52336 0.0392196C8.49136 0.0331396 8.45856 0.0292996 8.42624 0.0244996C8.36992 0.0164996 8.3136 0.00913952 8.25664 0.00513952C8.23712 0.00369952 8.21744 0.00321958 8.19776 0.00225958C8.13984 -0.000620419 8.08176 -0.000460491 8.02368 0.00113951C7.69088 0.0204995 7.39552 0.0904195 7.1368 0.19954C7.084 0.22338 7.03056 0.24658 6.9808 0.27474C6.46208 0.5573 6.06528 1.03826 5.88208 1.60162C5.75504 2.02226 5.74416 2.4765 5.85216 2.90226C5.85328 2.90626 5.85424 2.91042 5.85536 2.91442C5.86048 2.93282 5.86576 2.95122 5.87088 2.96962C5.87712 2.99154 5.88448 3.0133 5.89136 3.03506C5.8976 3.05266 5.90416 3.0701 5.91072 3.0877H0.82592C0.37056 3.0877 2.14577e-08 3.45826 2.14577e-08 3.91362V9.94114C2.14577e-08 10.3967 0.37056 10.7671 0.82592 10.7671H4.04544C4.0496 10.7859 4.05488 10.8042 4.05936 10.8229C4.50256 12.5667 6.05344 13.8 7.88608 13.8445C9.40656 13.8075 10.7126 12.9291 11.3666 11.6698C11.3763 11.6733 11.3864 11.6759 11.3962 11.6792C13.0253 12.2954 14.8765 11.0026 14.8435 9.25826V6.02226C14.8437 5.54482 14.4541 5.15634 13.9754 5.15634Z" fill="#464EB8"/>
<g id="Group_2">
<g id="Group_3">
<path id="Vector_3" d="M11.8112 6.03973C11.8222 5.56437 11.4453 5.16805 10.971 5.15637C10.9691 5.15637 7.54191 5.15637 7.54191 5.15637C7.41567 5.15637 7.31327 5.25893 7.31327 5.38565V10.0408C7.31327 10.2556 7.13903 10.4301 6.92479 10.4301H4.25199C4.18335 10.4301 4.11823 10.4612 4.07487 10.5144C4.03151 10.5679 4.01423 10.638 4.02815 10.7055C4.40687 12.5552 5.98783 13.8794 7.88415 13.9256C10.1011 13.8712 11.8627 12.0194 11.8112 9.80293V6.03973Z" fill="#7B83EB"/>
</g>
<path id="Vector_4" d="M8.07295 4.61029C8.08783 4.61045 8.10271 4.60933 8.11759 4.60917C8.17487 4.60837 8.23167 4.60549 8.28783 4.60069C8.30703 4.59893 8.32607 4.59733 8.34495 4.59509C8.40927 4.58789 8.47311 4.57845 8.53583 4.56613C8.53967 4.56533 8.54383 4.56485 8.54767 4.56405C8.84495 4.50341 9.12527 4.38485 9.37439 4.21685C9.60495 4.06149 9.80431 3.86437 9.96543 3.63845C10.007 3.58389 10.0449 3.52693 10.0803 3.46869C10.0837 3.46293 10.0873 3.45749 10.0907 3.45157C10.1179 3.40565 10.1419 3.35797 10.1653 3.31013C10.1755 3.28933 10.1861 3.26869 10.1957 3.24741C10.2203 3.19221 10.2432 3.13605 10.263 3.07893C10.2648 3.07413 10.2665 3.06949 10.2681 3.06485C10.4965 2.39157 10.392 1.59973 9.99999 1.00789C9.89631 0.856049 9.77327 0.718929 9.63711 0.596049C9.60895 0.571569 9.58207 0.545809 9.55247 0.522929C9.43823 0.428849 9.31487 0.345489 9.18383 0.274609C9.11823 0.239089 9.05087 0.206609 8.98175 0.177489C8.91231 0.146769 8.83983 0.121489 8.76623 0.0986093C8.72399 0.0856493 8.68015 0.0762093 8.63695 0.0654893C8.59871 0.0562093 8.56095 0.0461293 8.52223 0.0389293C8.49023 0.0328493 8.45759 0.0290093 8.42511 0.0242093C8.36879 0.0162093 8.31247 0.00884929 8.25551 0.00484929C8.23599 0.00340929 8.21631 0.00292927 8.19679 0.00196927C8.13887 -0.000590727 8.08079 -0.000430669 8.02271 0.00116933C7.68991 0.0205293 7.39455 0.0902893 7.13583 0.199569C7.08303 0.223409 7.02959 0.246609 6.97983 0.274769C6.46111 0.557489 6.06415 1.03845 5.88111 1.60181C5.75407 2.02245 5.74319 2.47669 5.85119 2.90245C5.85231 2.90645 5.85327 2.91061 5.85439 2.91461C5.85951 2.93301 5.86479 2.95141 5.86991 2.96981C5.87615 2.99173 5.88351 3.01349 5.89039 3.03525C5.89999 3.06261 5.91007 3.08965 5.92031 3.11685H5.91599C6.19999 3.91317 6.91887 4.56149 8.07295 4.61029Z" fill="#7B83EB"/>
</g>
<g id="Group_4">
<path id="Vector_5" d="M6.85376 3.08802H0.82592C0.37056 3.08802 0 3.45858 0 3.91394V9.94146C0 10.397 0.37056 10.7674 0.82592 10.7674H6.85376C7.30912 10.7674 7.67952 10.3968 7.67952 9.94146V3.91394C7.67968 3.45858 7.30928 3.08802 6.85376 3.08802Z" fill="#464EB8"/>
<path id="Vector_6" d="M5.35878 4.76575H2.27398C2.15062 4.76575 2.05078 4.86575 2.05078 4.98911V5.55135C2.05078 5.67471 2.15062 5.77471 2.27398 5.77471H3.26918V8.90671C3.26918 9.03007 3.36902 9.13007 3.49238 9.13007H4.15382C4.27718 9.13007 4.37702 9.03007 4.37702 8.90671V5.77471H5.35878C5.48214 5.77471 5.58198 5.67471 5.58198 5.55135V4.98911C5.58198 4.86575 5.48214 4.76575 5.35878 4.76575Z" fill="white"/>
</g>
</g>
</svg>
